<svg preserveAspectRatio="none" width="100%" height="100%" overflow="visible" style="display: block;" viewBox="0 0 62.7796 30" fill="none" xmlns="http://www.w3.org/2000/svg">
<g id="Parsel Logo" clip-path="url(#clip0_0_4)">
<g id="parsel">
<path id="Vector" d="M62.7796 9.23532V25.4418H59.915V9.23532H62.7796Z" fill="var(--fill-0, black)"/>
<path id="Vector_2" d="M52.3096 25.6792C51.091 25.6792 50.0385 25.426 49.1522 24.9195C48.2712 24.4078 47.5933 23.685 47.1185 22.7513C46.6437 21.8122 46.4063 20.707 46.4063 19.4356C46.4063 18.1853 46.6437 17.088 47.1185 16.1436C47.5986 15.194 48.2686 14.4555 49.1285 13.9279C49.9884 13.3951 50.9987 13.1287 52.1593 13.1287C52.9084 13.1287 53.6153 13.25 54.28 13.4927C54.95 13.7301 55.5409 14.0994 56.0526 14.6006C56.5696 15.1017 56.9758 15.7401 57.2712 16.5156C57.5667 17.2858 57.7144 18.2037 57.7144 19.2694V20.1478H47.7516V18.2169H54.9685C54.9632 17.6683 54.8445 17.1803 54.6124 16.753C54.3803 16.3204 54.0558 15.9801 53.6391 15.7322C53.2276 15.4842 52.7475 15.3602 52.1988 15.3602C51.6133 15.3602 51.0989 15.5027 50.6558 15.7875C50.2126 16.0671 49.8671 16.4364 49.6191 16.8954C49.3764 17.3491 49.2525 17.8476 49.2472 18.391V20.0766C49.2472 20.7835 49.3764 21.3902 49.6349 21.8966C49.8934 22.3978 50.2548 22.7829 50.7191 23.052C51.1833 23.3157 51.7267 23.4476 52.3492 23.4476C52.766 23.4476 53.1432 23.3896 53.4808 23.2735C53.8184 23.1522 54.1112 22.9755 54.3592 22.7433C54.6071 22.5112 54.7944 22.2237 54.921 21.8808L57.5957 22.1815C57.4269 22.8884 57.1051 23.5057 56.6303 24.0332C56.1608 24.5555 55.5593 24.9617 54.826 25.2519C54.0927 25.5367 53.2539 25.6792 52.3096 25.6792Z" fill="var(--fill-0, black)"/>
<path id="Vector_3" d="M44.5282 16.4997L41.9168 16.7846C41.843 16.5208 41.7137 16.2729 41.5291 16.0408C41.3497 15.8086 41.107 15.6214 40.801 15.4789C40.4951 15.3365 40.1205 15.2653 39.6774 15.2653C39.0812 15.2653 38.5801 15.3945 38.1738 15.653C37.7729 15.9115 37.5751 16.2465 37.5803 16.658C37.5751 17.0115 37.7043 17.299 37.9681 17.5206C38.2371 17.7421 38.6803 17.9241 39.2975 18.0666L41.3708 18.5097C42.5209 18.7577 43.3755 19.1507 43.9347 19.6888C44.4992 20.2269 44.7841 20.9312 44.7893 21.8017C44.7841 22.5666 44.5598 23.2419 44.1167 23.8275C43.6788 24.4078 43.0695 24.8615 42.2887 25.1886C41.508 25.5156 40.6111 25.6792 39.5982 25.6792C38.1105 25.6792 36.913 25.3679 36.0056 24.7454C35.0982 24.1176 34.5575 23.2445 34.3834 22.1261L37.1768 21.8571C37.3034 22.4057 37.5724 22.8198 37.9839 23.0994C38.3954 23.379 38.9309 23.5188 39.5903 23.5188C40.2709 23.5188 40.8169 23.379 41.2284 23.0994C41.6451 22.8198 41.8535 22.4743 41.8535 22.0628C41.8535 21.7146 41.719 21.4271 41.4499 21.2003C41.1862 20.9734 40.7747 20.7993 40.2155 20.678L38.1422 20.2427C36.9763 20.0001 36.1137 19.5912 35.5545 19.0162C34.9953 18.4359 34.7184 17.7026 34.7237 16.8163C34.7184 16.0672 34.9215 15.4183 35.333 14.8696C35.7497 14.3157 36.3274 13.8884 37.066 13.5876C37.8098 13.2817 38.6671 13.1287 39.6378 13.1287C41.0622 13.1287 42.1832 13.432 43.0009 14.0387C43.8239 14.6454 44.333 15.4657 44.5282 16.4997Z" fill="var(--fill-0, black)"/>
<path id="Vector_4" d="M26.3092 25.4418V13.2869H29.0867V15.3127H29.2133C29.4349 14.6111 29.8147 14.0704 30.3528 13.6905C30.8962 13.3054 31.5161 13.1128 32.2125 13.1128C32.3707 13.1128 32.5474 13.1208 32.7426 13.1366C32.9431 13.1471 33.1093 13.1656 33.2412 13.192V15.8271C33.1198 15.7849 32.9273 15.748 32.6635 15.7163C32.405 15.6794 32.1544 15.6609 31.9117 15.6609C31.3895 15.6609 30.92 15.7744 30.5032 16.0012C30.0917 16.2228 29.7673 16.5314 29.5299 16.9271C29.2925 17.3227 29.1738 17.7791 29.1738 18.2961V25.4418H26.3092Z" fill="var(--fill-0, black)"/>
<path id="Vector_5" d="M17.2339 25.6871C16.4637 25.6871 15.77 25.5499 15.1527 25.2756C14.5408 24.996 14.0554 24.5845 13.6967 24.0411C13.3432 23.4977 13.1665 22.8278 13.1665 22.0311C13.1665 21.3453 13.2931 20.7782 13.5463 20.3298C13.7996 19.8814 14.1451 19.5226 14.583 19.2536C15.0208 18.9845 15.5141 18.7814 16.0627 18.6443C16.6167 18.5018 17.1891 18.3989 17.7799 18.3356C18.4921 18.2618 19.0698 18.1958 19.5129 18.1378C19.9561 18.0745 20.2779 17.9795 20.4784 17.8529C20.6841 17.721 20.787 17.5179 20.787 17.2436V17.1961C20.787 16.6 20.6102 16.1384 20.2568 15.8113C19.9033 15.4842 19.3942 15.3207 18.7295 15.3207C18.0279 15.3207 17.4713 15.4737 17.0598 15.7796C16.6536 16.0856 16.3793 16.447 16.2368 16.8638L13.5622 16.4839C13.7732 15.7453 14.1214 15.1281 14.6067 14.6322C15.0921 14.131 15.6855 13.7565 16.3872 13.5085C17.0888 13.2553 17.8643 13.1287 18.7137 13.1287C19.2993 13.1287 19.8822 13.1973 20.4625 13.3344C21.0428 13.4716 21.573 13.6984 22.0531 14.015C22.5332 14.3262 22.9183 14.7509 23.2084 15.289C23.5039 15.8271 23.6516 16.4997 23.6516 17.3069V25.4418H20.8978V23.7721H20.8028C20.6287 24.1097 20.3834 24.4262 20.0669 24.7217C19.7556 25.0118 19.3626 25.2466 18.8878 25.426C18.4183 25.6001 17.867 25.6871 17.2339 25.6871ZM17.9778 23.5822C18.5528 23.5822 19.0513 23.4687 19.4734 23.2419C19.8954 23.0098 20.2198 22.7038 20.4467 22.3239C20.6788 21.9441 20.7949 21.53 20.7949 21.0816V19.6492C20.7052 19.7231 20.5522 19.7917 20.3359 19.855C20.1249 19.9183 19.8875 19.9737 19.6237 20.0212C19.3599 20.0686 19.0988 20.1109 18.8403 20.1478C18.5818 20.1847 18.3576 20.2164 18.1677 20.2427C17.7404 20.3008 17.3579 20.3957 17.0203 20.5276C16.6826 20.6595 16.4162 20.8442 16.221 21.0816C16.0258 21.3137 15.9282 21.6144 15.9282 21.9837C15.9282 22.5112 16.1208 22.9095 16.5059 23.1786C16.891 23.4476 17.3816 23.5822 17.9778 23.5822Z" fill="var(--fill-0, black)"/>
<path id="Vector_6" d="M0.0317347 29.9999V13.2869H2.84886V15.2969H3.01504C3.16275 15.0015 3.37113 14.6876 3.64018 14.3552C3.90923 14.0176 4.27325 13.7301 4.73221 13.4927C5.19118 13.25 5.77677 13.1287 6.48896 13.1287C7.428 13.1287 8.27472 13.3687 9.02912 13.8488C9.78879 14.3236 10.3902 15.0279 10.8333 15.9616C11.2818 16.8901 11.506 18.0297 11.506 19.3802C11.506 20.7149 11.287 21.8491 10.8492 22.7829C10.4113 23.7167 9.81517 24.4289 9.06077 24.9195C8.30637 25.4101 7.45174 25.6554 6.49687 25.6554C5.80051 25.6554 5.22284 25.5394 4.76387 25.3073C4.3049 25.0751 3.93561 24.7955 3.65601 24.4684C3.38168 24.1361 3.16803 23.8222 3.01504 23.5268H2.89634V29.9999H0.0317347ZM2.84094 19.3644C2.84094 20.1504 2.95173 20.8389 3.1733 21.4297C3.40015 22.0206 3.72459 22.4822 4.14663 22.8146C4.57395 23.1416 5.09095 23.3052 5.69763 23.3052C6.33069 23.3052 6.86088 23.1364 7.2882 22.7987C7.71552 22.4558 8.03732 21.9889 8.25362 21.3981C8.47519 20.8019 8.58598 20.124 8.58598 19.3644C8.58598 18.61 8.47783 17.94 8.26153 17.3544C8.04524 16.7688 7.72343 16.3098 7.29611 15.9775C6.8688 15.6451 6.33597 15.4789 5.69763 15.4789C5.08567 15.4789 4.56604 15.6398 4.13872 15.9616C3.7114 16.2834 3.38696 16.7345 3.16539 17.3148C2.94909 17.8951 2.84094 18.5783 2.84094 19.3644Z" fill="var(--fill-0, black)"/>
</g>
<path id="Vector 5182 (Stroke)" d="M62.713 6.85453e-07V6.99002H59.8439V2.8686H2.86858V10.5244H-9.68575e-07V6.85453e-07H62.713Z" fill="var(--fill-0, #F44900)"/>
</g>
<defs>
<clipPath id="clip0_0_4">
<rect width="62.7796" height="30" fill="white"/>
</clipPath>
</defs>
</svg>
